<svg style="display:none;">
  <symbol id="icon-liebiao" viewBox="0 0 1024 1024">
    <path
      d="M892.928 128q28.672 0 48.64 19.968t19.968 48.64l0 52.224q0 28.672-19.968 48.64t-48.64 19.968l-759.808 0q-28.672 0-48.64-19.968t-19.968-48.64l0-52.224q0-28.672 19.968-48.64t48.64-19.968l759.808 0zM892.928 448.512q28.672 0 48.64 19.968t19.968 48.64l0 52.224q0 28.672-19.968 48.64t-48.64 19.968l-759.808 0q-28.672 0-48.64-19.968t-19.968-48.64l0-52.224q0-28.672 19.968-48.64t48.64-19.968l759.808 0zM892.928 769.024q28.672 0 48.64 19.968t19.968 48.64l0 52.224q0 28.672-19.968 48.64t-48.64 19.968l-759.808 0q-28.672 0-48.64-19.968t-19.968-48.64l0-52.224q0-28.672 19.968-48.64t48.64-19.968l759.808 0z">
    </path>
  </symbol>
  <symbol id="icon-shanchu" viewBox="0 0 1024 1024">
    <path
      d="M895.464448 119.006208 677.967872 119.006208c0 0-32.8448 1.020928-58.648576-26.943488-10.395648-12.050432-27.804672-23.795712-56.4224-24.799232l-41.183232 0-6.280192 0-41.182208 0c-28.618752 1.004544-46.031872 12.749824-56.4224 24.799232-25.807872 27.964416-58.6496 26.943488-58.6496 26.943488L141.682688 119.006208c-13.99296 0-25.33888 11.34592-25.33888 25.33888l0 93.090816c-0.053248 26.927104 26.083328 26.396672 26.083328 26.396672l49.83808 0L192.265216 913.65376c0 0-3.966976 44.084224 40.121344 46.45888l269.31712 0 33.738752 0 30.808064 0.238592 38.500352 0 174.934016 0 24.297472 0 0.782336-0.238592c44.080128-2.374656 40.117248-46.45888 40.117248-46.45888L844.88192 263.832576l49.842176 0c0 0 26.133504 0.530432 26.083328-26.396672l0-93.090816C920.8064 130.353152 909.46048 119.006208 895.464448 119.006208zM430.539776 803.171328c0 17.042432-13.828096 30.865408-30.865408 30.865408-17.042432 0-30.865408-13.824-30.865408-30.865408L368.80896 320.736256c0-17.042432 13.824-30.865408 30.865408-30.865408 17.038336 0 30.865408 13.824 30.865408 30.865408L430.539776 803.171328zM663.436288 803.171328c0 17.042432-13.824 30.865408-30.865408 30.865408-17.038336 0-30.865408-13.824-30.865408-30.865408L601.705472 320.736256c0-17.042432 13.828096-30.865408 30.865408-30.865408 17.041408 0 30.865408 13.824 30.865408 30.865408L663.436288 803.171328z">
    </path>
  </symbol>
  <symbol id="icon-bianji" viewBox="0 0 1028 1024">
    <path
      d="M1018.319924 112.117535q4.093748 9.210934 6.652341 21.492179t2.558593 25.585928-5.117186 26.609365-16.374994 25.585928q-12.281245 12.281245-22.003898 21.492179t-16.886712 16.374994q-8.187497 8.187497-15.351557 14.32812l-191.382739-191.382739q12.281245-11.257808 29.167958-27.121083t28.144521-25.074209q14.32812-11.257808 29.679676-15.863275t30.191395-4.093748 28.656239 4.605467 24.050772 9.210934q21.492179 11.257808 47.589826 39.402329t40.425766 58.847634zM221.062416 611.554845q6.140623-6.140623 28.656239-29.167958t56.289041-56.80076l74.710909-74.710909 82.898406-82.898406 220.038979-220.038979 191.382739 192.406177-220.038979 220.038979-81.874969 82.898406q-40.937484 39.914047-73.687472 73.175753t-54.242167 54.753885-25.585928 24.562491q-10.234371 9.210934-23.539054 19.445305t-27.632802 16.374994q-14.32812 7.16406-41.960921 17.398431t-57.824197 19.957024-57.312478 16.886712-40.425766 9.210934q-27.632802 3.070311-36.843736-8.187497t-5.117186-37.867173q2.046874-14.32812 9.722653-41.449203t16.374994-56.289041 16.886712-53.730448 13.304682-33.773425q6.140623-14.32812 13.816401-26.097646t22.003898-26.097646z">
    </path>
  </symbol>
  <symbol id="icon-gengduotianchong" viewBox="0 0 1024 1024">
    <path
      d="M267.388928 514.13504c0 58.960896-47.794176 106.753024-106.754048 106.753024S53.880832 573.095936 53.880832 514.13504s47.793152-106.761216 106.753024-106.761216S267.388928 455.175168 267.388928 514.13504z">
    </path>
    <path
      d="M619.495424 514.13504c0 58.960896-47.794176 106.753024-106.754048 106.753024s-106.753024-47.793152-106.753024-106.753024 47.793152-106.761216 106.753024-106.761216S619.495424 455.175168 619.495424 514.13504z">
    </path>
    <path
      d="M971.602944 514.13504c0 58.960896-47.794176 106.753024-106.754048 106.753024s-106.753024-47.793152-106.753024-106.753024S805.888 407.374848 864.848896 407.374848 971.602944 455.175168 971.602944 514.13504z">
    </path>
  </symbol>
  <symbol id="icon-xiayiyeqianjinchakangengduo-yuankuang" viewBox="0 0 1024 1024">
    <path
      d="M512 64C264.8 64 64 264.8 64 512s200.8 448 448 448 448-200.8 448-448S759.2 64 512 64zM398.4 784l-45.6-45.6L580 512 353.6 285.6l45.6-45.6 272 272-272.8 272z">
    </path>
  </symbol>
  <symbol id="icon-ziyuanxhdpi" viewBox="0 0 1090 1080">
    <path
      d="M391.590396 480.453572H88.863176a88.863176 88.863176 0 0 1-88.863176-88.863176V88.863176a88.863176 88.863176 0 0 1 88.863176-88.863176h302.72722a88.863176 88.863176 0 0 1 88.863176 88.863176v302.72722a88.863176 88.863176 0 0 1-88.863176 88.863176zM88.863176 59.242117a29.621059 29.621059 0 0 0-29.621059 29.621059v302.72722a29.621059 29.621059 0 0 0 29.621059 29.621059h302.72722a29.621059 29.621059 0 0 0 29.621059-29.621059V88.863176a29.621059 29.621059 0 0 0-29.621059-29.621059zM941.653457 480.453572H638.926237a88.863176 88.863176 0 0 1-88.863177-88.863176V88.863176a88.863176 88.863176 0 0 1 88.863177-88.863176h302.72722a88.863176 88.863176 0 0 1 88.863176 88.863176v302.72722a88.863176 88.863176 0 0 1-88.863176 88.863176zM638.926237 59.242117a29.621059 29.621059 0 0 0-29.621059 29.621059v302.72722a29.621059 29.621059 0 0 0 29.621059 29.621059h302.72722a29.621059 29.621059 0 0 0 29.621058-29.621059V88.863176a29.621059 29.621059 0 0 0-29.621058-29.621059zM941.653457 1019.853052H638.926237a88.863176 88.863176 0 0 1-88.863177-88.863176V628.262655a88.863176 88.863176 0 0 1 88.863177-88.863176h302.72722a88.863176 88.863176 0 0 1 88.863176 88.863176v302.727221a88.863176 88.863176 0 0 1-88.863176 88.863176zM638.926237 598.641597a29.621059 29.621059 0 0 0-29.621059 29.621058v302.727221a29.621059 29.621059 0 0 0 29.621059 29.621058h302.72722a29.621059 29.621059 0 0 0 29.621058-29.621058V628.262655a29.621059 29.621059 0 0 0-29.621058-29.621058zM391.590396 1024H88.863176a88.863176 88.863176 0 0 1-88.863176-88.863176V632.409604a88.863176 88.863176 0 0 1 88.863176-88.863176h302.72722a88.863176 88.863176 0 0 1 88.863176 88.863176v302.72722a88.863176 88.863176 0 0 1-88.863176 88.863176zM88.863176 602.788545a29.621059 29.621059 0 0 0-29.621059 29.621059v302.72722a29.621059 29.621059 0 0 0 29.621059 29.621059h302.72722a29.621059 29.621059 0 0 0 29.621059-29.621059V632.409604a29.621059 29.621059 0 0 0-29.621059-29.621059z">
    </path>
  </symbol>
</svg>